<?xml version="1.0" standalone="no"?>
<!DOCTYPE svg PUBLIC "-//W3C//DTD SVG 20010904//EN"
 "http://www.w3.org/TR/2001/REC-SVG-20010904/DTD/svg10.dtd">
<svg version="1.0" xmlns="http://www.w3.org/2000/svg"
 width="1550.000000pt" height="900.000000pt" viewBox="0 0 1550.000000 900.000000"
 preserveAspectRatio="xMidYMid meet">

<g transform="translate(0.000000,900.000000) scale(0.100000,-0.100000)"
fill="#000000" stroke="none">
<path d="M7749 8217 c-86 -36 -166 -84 -231 -138 -33 -27 -62 -49 -66 -49 -10
0 -46 26 -83 59 -63 58 -199 64 -312 14 -75 -34 -166 -130 -198 -211 -29 -75
-33 -78 -79 -86 -106 -17 -382 -121 -540 -204 -47 -24 -101 -52 -120 -62 -20
-10 -81 -48 -135 -85 -285 -191 -555 -451 -737 -709 -120 -171 -273 -449 -333
-605 -65 -174 -128 -404 -155 -571 -7 -41 -17 -100 -22 -130 -16 -88 -22 -501
-9 -636 24 -243 84 -516 161 -723 43 -116 121 -292 147 -331 13 -19 23 -39 23
-44 0 -10 113 -196 148 -243 13 -18 21 -37 17 -43 -4 -7 -132 -10 -383 -10
-222 0 -392 -4 -413 -10 -20 -6 -57 -28 -82 -50 -74 -66 -77 -82 -77 -459 0
-179 -5 -436 -10 -571 -5 -135 -10 -320 -10 -411 -1 -146 2 -173 20 -220 23
-57 75 -119 125 -147 28 -16 231 -17 3080 -20 3421 -3 3113 -10 3189 72 21 22
43 52 49 66 15 35 20 505 10 1105 l-8 490 -25 41 c-30 50 -73 87 -119 102 -24
8 -165 12 -467 12 -485 0 -462 -4 -406 69 24 30 97 150 144 236 204 370 338
902 338 1342 0 225 -33 521 -74 663 -17 58 -12 69 32 76 21 3 57 16 82 27 35
17 46 29 50 51 3 21 13 32 30 37 73 22 195 70 210 84 9 8 22 15 29 15 6 0 42
31 80 68 72 72 90 116 75 180 -21 87 -126 166 -291 218 -49 15 -100 33 -114
40 -29 14 -45 8 -50 -21 -2 -11 -18 -26 -34 -33 -17 -8 -41 -32 -55 -54 -50
-80 -177 -160 -260 -163 -25 0 -59 -8 -76 -18 -31 -16 -33 -16 -100 18 -42 21
-91 37 -126 41 -55 6 -58 8 -58 34 0 15 9 39 20 53 11 14 20 28 20 32 0 4 7
23 16 43 48 112 48 97 2 131 -23 17 -47 31 -54 31 -6 0 -54 -42 -106 -93 -51
-52 -105 -97 -119 -100 -26 -7 -119 -105 -119 -126 0 -7 -7 -23 -16 -36 -20
-31 -66 -33 -94 -5 -21 21 -23 11 25 108 7 13 31 50 55 83 34 46 49 59 69 59
32 0 113 40 119 58 11 37 -131 -12 -188 -65 -39 -37 -60 -51 -60 -40 0 2 15
19 33 39 30 33 97 69 241 132 32 14 63 26 68 26 5 0 53 21 106 47 l97 48 105
-1 c93 0 112 -3 161 -27 54 -26 90 -59 137 -125 26 -37 27 -42 8 -42 -21 0
-97 -36 -126 -59 -33 -26 -19 -38 23 -18 18 9 55 21 82 26 28 6 87 26 133 43
71 28 91 41 129 86 45 52 69 64 79 38 3 -8 -12 -30 -37 -53 -28 -27 -40 -45
-36 -56 12 -32 157 28 157 66 0 5 -14 29 -32 53 -47 66 -74 62 -158 -25 -67
-69 -112 -92 -144 -74 -8 4 -26 25 -41 47 -31 46 -27 53 50 90 67 31 69 48 15
100 -50 47 -67 43 -122 -30 -30 -40 -45 -53 -57 -48 -90 39 -130 47 -239 47
-105 -1 -113 1 -124 21 -6 11 -42 59 -81 106 -154 186 -395 403 -582 524 -33
22 -78 51 -100 66 -22 14 -47 29 -55 33 -8 4 -28 16 -45 27 -16 11 -37 23 -45
26 -8 4 -69 32 -135 64 -67 31 -132 60 -147 63 -23 6 -27 13 -38 89 -20 135
-55 210 -130 288 -92 95 -203 140 -365 147 -66 3 -90 -1 -136 -20z m216 -51
c178 -32 300 -140 349 -308 31 -108 41 -190 28 -246 -12 -49 -1 -62 22 -27 38
57 178 15 263 -80 93 -102 117 -205 79 -337 -41 -137 -195 -255 -344 -261 -73
-3 -149 33 -227 106 -30 29 -55 49 -55 44 0 -29 47 -101 90 -138 27 -23 50
-47 50 -52 0 -5 -28 -48 -63 -96 -35 -47 -78 -110 -96 -138 -18 -29 -39 -53
-47 -53 -11 0 -85 106 -163 233 l-23 37 30 48 c63 103 66 173 7 198 -43 18
-97 0 -171 -56 -55 -41 -91 -50 -100 -25 -3 7 6 60 20 117 31 126 27 153 -30
185 -21 13 -47 23 -57 23 -37 0 -97 -41 -160 -110 -35 -40 -67 -68 -70 -63 -3
4 -5 45 -6 91 -1 91 -21 135 -67 146 -17 5 -24 13 -24 31 0 19 11 30 48 50 26
14 65 36 87 50 22 13 43 24 47 25 4 0 23 -25 44 -55 58 -88 140 -150 256 -193
75 -27 163 -35 263 -21 100 13 118 6 105 -40 -5 -17 -3 -49 3 -77 l12 -49 5
94 5 95 44 26 c46 26 64 50 38 50 -7 0 -40 -9 -73 -21 -37 -12 -97 -22 -159
-25 -88 -5 -110 -3 -190 21 -165 49 -231 98 -291 220 -37 75 -56 89 -62 46 -5
-30 -84 -86 -148 -104 -44 -13 -63 -13 -133 -2 -96 16 -135 36 -174 92 -38 54
-43 109 -18 202 35 132 131 242 236 270 90 24 181 9 234 -39 34 -32 34 -30 19
-114 -6 -38 18 -25 61 31 84 110 274 206 416 211 11 1 52 -5 90 -12z m-735
-846 c22 -12 38 -86 21 -103 -7 -7 -16 -5 -31 8 -20 18 -21 18 -49 -9 -33 -31
-46 -22 -36 24 7 32 50 90 67 90 5 0 18 -4 28 -10z m356 -75 c14 -22 15 -32 3
-90 -7 -36 -21 -73 -31 -82 -17 -15 -18 -13 -18 51 0 62 -2 67 -26 78 -21 10
-30 8 -55 -6 -21 -13 -34 -15 -41 -8 -7 7 1 22 28 46 32 29 47 36 81 36 34 0
46 -5 59 -25z m-574 -167 c3 -7 0 -28 -6 -46 -11 -36 6 -212 26 -260 21 -54
33 -78 57 -115 l25 -38 -41 -37 c-22 -20 -49 -54 -58 -75 -10 -21 -30 -44 -45
-52 -35 -18 -42 -35 -22 -58 12 -13 13 -22 5 -40 -12 -24 -31 -98 -35 -137 -2
-18 -10 -26 -28 -28 -25 -4 -50 -19 -50 -31 0 -3 18 -25 40 -49 30 -31 40 -50
40 -75 0 -17 7 -59 15 -92 18 -77 19 -69 -13 -107 -33 -38 -52 -87 -52 -135 0
-37 24 -93 41 -93 10 0 24 -10 61 -44 18 -16 20 -26 14 -72 -8 -71 -19 -93
-89 -193 -31 -43 -30 -76 3 -86 11 -4 26 -13 35 -21 12 -13 11 -20 -11 -61
-13 -26 -28 -50 -33 -53 -5 -3 -20 -30 -35 -61 -25 -55 -104 -149 -124 -149
-12 0 -66 -53 -142 -139 -53 -60 -57 -63 -94 -58 -49 7 -57 16 -66 72 -8 50
-2 91 30 210 43 158 43 164 26 190 -28 42 -85 29 -168 -38 -25 -20 -38 -39
-38 -54 0 -14 -6 -23 -15 -23 -21 0 -20 142 1 267 13 76 14 99 4 123 -11 27
-17 30 -60 30 -39 0 -56 -7 -98 -37 -62 -46 -81 -77 -105 -168 -10 -38 -20
-72 -23 -74 -10 -10 -26 19 -31 59 -7 51 -22 58 -65 32 -52 -32 -85 -72 -114
-137 -25 -56 -26 -67 -21 -167 5 -107 4 -108 -18 -108 -34 0 -48 -24 -43 -72
6 -56 51 -205 82 -270 25 -53 26 -68 1 -68 -21 0 -45 -53 -45 -97 0 -70 115
-263 157 -263 22 0 36 -32 44 -103 19 -171 23 -194 46 -238 24 -49 29 -79 14
-79 -13 0 -179 211 -219 280 -180 302 -269 551 -307 850 -23 177 -16 523 14
676 76 401 277 788 553 1067 57 57 132 127 168 156 36 28 72 57 80 64 8 6 22
17 30 22 9 6 41 27 72 47 45 30 134 81 208 119 73 37 172 77 269 109 129 42
147 46 153 28z m856 -54 c4 -38 -14 -87 -31 -81 -6 2 -11 16 -9 31 2 20 -3 28
-23 36 -14 5 -25 14 -25 19 0 16 33 31 60 28 20 -2 26 -8 28 -33z m676 -221
c39 -25 103 -72 141 -103 96 -79 250 -237 250 -257 0 -11 -11 -20 -30 -24 -38
-8 -69 -22 -120 -54 -56 -35 -55 -34 -108 -95 -45 -52 -47 -57 -47 -117 0 -34
5 -65 10 -68 18 -11 11 -41 -19 -82 -16 -22 -37 -63 -46 -89 -19 -54 -22 -168
-6 -221 7 -23 4 -60 -9 -135 -10 -57 -24 -134 -30 -173 -6 -38 -15 -90 -20
-115 -5 -25 -15 -79 -22 -120 -16 -87 -33 -97 -54 -30 -8 25 -18 59 -24 75 -5
17 -12 49 -16 72 -3 23 -13 44 -20 47 -8 3 -14 11 -14 18 0 8 -25 40 -56 73
-62 67 -62 67 -117 220 -36 102 -39 117 -37 205 1 87 -1 98 -24 133 -14 21
-26 43 -26 49 0 6 -7 19 -15 28 -8 9 -33 70 -54 136 -22 65 -45 133 -51 149
-11 27 -8 38 34 120 53 103 55 106 116 198 66 100 71 108 115 155 35 37 46 42
85 43 25 1 56 5 70 9 38 13 67 3 144 -47z m1571 -20 c0 -13 -62 -63 -78 -63
-4 0 2 18 14 40 17 30 29 40 44 38 11 -2 20 -8 20 -15z m-2260 -61 c22 -34 59
-93 83 -132 l43 -69 -13 -56 c-13 -55 -33 -72 -44 -37 -10 30 -67 136 -92 172
-14 19 -43 51 -65 71 -36 33 -38 38 -27 60 20 38 43 60 59 57 9 -2 34 -31 56
-66z m-166 -58 c60 -34 85 -58 130 -119 68 -91 106 -179 172 -395 33 -111 64
-180 78 -180 15 0 31 -60 31 -117 0 -58 -9 -81 -47 -127 -29 -34 -23 -45 11
-22 14 9 30 16 35 16 11 0 39 -48 51 -89 67 -218 86 -317 94 -485 5 -120 2
-136 -24 -136 -13 0 -23 14 -35 50 -9 28 -23 50 -30 50 -17 0 -28 -50 -23
-105 3 -34 0 -40 -17 -40 -13 0 -25 11 -34 33 -23 52 -45 38 -51 -33 -5 -54
-8 -61 -38 -78 -18 -11 -70 -33 -115 -49 -69 -26 -96 -30 -171 -30 -113 1
-193 19 -212 47 -13 20 -74 207 -74 227 0 12 -97 263 -120 308 -10 21 -66 31
-132 24 l-58 -6 0 37 c0 41 31 99 60 115 44 24 120 1 120 -36 0 -7 3 -14 8
-16 4 -1 17 -23 30 -48 13 -25 36 -70 52 -100 15 -30 30 -63 34 -72 3 -11 15
-18 30 -18 14 0 28 -4 31 -10 4 -6 -7 -10 -24 -10 -34 0 -39 -15 -17 -46 14
-19 15 -19 48 0 18 10 52 35 76 54 32 26 46 32 55 23 8 -8 5 -21 -11 -48 -88
-148 -119 -258 -92 -324 23 -55 98 -62 124 -10 7 14 26 76 41 136 33 130 39
139 81 125 44 -15 78 1 111 52 24 37 28 53 27 113 -1 62 -24 165 -65 294 -12
37 2 57 31 45 41 -17 98 -16 131 2 l34 19 -82 6 c-68 5 -89 11 -117 33 -51 39
-65 90 -42 162 10 31 26 63 36 72 11 8 17 19 14 24 -10 15 -43 -12 -69 -56
-24 -41 -77 -77 -92 -63 -3 3 9 21 27 39 46 45 60 87 64 180 3 63 8 84 24 101
18 19 52 86 52 102 0 13 -23 3 -39 -17 -23 -27 -68 -18 -81 17 -9 25 -75 75
-98 75 -27 0 -71 -31 -86 -60 l-15 -30 26 20 c49 38 125 15 158 -50 21 -40 11
-56 -53 -86 -32 -14 -74 -34 -95 -45 -21 -11 -43 -17 -48 -14 -13 9 -11 109 2
122 6 6 9 17 6 25 -9 24 -28 -45 -34 -124 -7 -102 15 -175 68 -223 22 -19 46
-35 54 -35 8 0 15 -4 15 -9 0 -18 -40 -22 -98 -11 -62 12 -64 13 -166 60 -69
32 -91 34 -161 14 -19 -5 -20 0 -20 98 -1 116 -20 191 -59 227 -34 32 -74 25
-103 -18 -23 -34 -32 -77 -13 -66 6 3 10 14 10 24 0 25 20 41 52 41 23 0 32
-8 53 -50 27 -53 31 -75 15 -85 -12 -8 -123 30 -128 44 -2 6 -15 11 -29 11
-26 0 -26 1 -20 63 8 85 44 194 72 223 20 20 28 22 50 14 15 -6 31 -8 36 -4
16 9 10 33 -11 44 -29 15 -25 35 13 64 43 33 52 32 118 -4 97 -53 134 -41 193
63 38 66 75 87 155 87 51 0 74 -5 110 -26z m1375 -33 c8 -12 -32 -86 -47 -86
-16 0 -20 35 -8 68 10 26 43 37 55 18z m76 -36 c0 -8 -4 -15 -9 -15 -5 0 -11
-10 -15 -23 -5 -23 -62 -84 -70 -76 -3 2 9 33 26 67 21 43 37 62 49 62 11 0
19 -7 19 -15z m330 -125 c0 -5 -5 -10 -11 -10 -5 0 -7 5 -4 10 3 6 8 10 11 10
2 0 4 -4 4 -10z m876 -9 c227 -61 344 -161 314 -270 -46 -171 -452 -321 -935
-346 -66 -3 -130 -8 -141 -10 -56 -12 -19 76 59 138 l37 31 145 -12 c140 -11
146 -10 212 12 37 13 122 51 188 84 99 49 124 67 139 95 28 50 13 81 -72 150
-40 32 -72 65 -72 74 0 21 32 73 45 73 5 0 42 -9 81 -19z m-916 -29 c0 -19
-49 -72 -66 -72 -5 0 -32 -20 -61 -45 -74 -65 -98 -57 -48 18 17 24 34 37 48
37 12 0 42 18 67 40 51 44 60 48 60 22z m-400 -31 c0 -12 -16 -29 -44 -45 -80
-47 -92 -138 -26 -201 23 -22 36 -26 90 -26 62 -1 64 -1 111 -50 26 -26 66
-56 88 -65 48 -19 50 -30 16 -84 -14 -22 -25 -44 -25 -50 0 -21 -27 -20 -140
4 -149 32 -202 47 -218 59 -7 6 -34 20 -61 32 -92 43 -151 112 -151 178 0 75
108 175 256 237 83 34 104 37 104 11z m8 -87 c-4 -20 -55 -61 -64 -51 -3 3 0
20 7 36 10 22 21 31 37 31 16 0 22 -5 20 -16z m511 -69 c91 -14 130 -32 117
-54 -9 -14 -94 -4 -178 21 -66 19 -81 31 -55 41 18 8 14 8 116 -8z m186 -136
c9 -27 -12 -49 -85 -88 -42 -22 -61 -39 -68 -61 -6 -16 -30 -55 -53 -87 -45
-60 -87 -153 -108 -236 -12 -51 -37 -97 -52 -97 -4 0 -35 -16 -67 -35 -33 -19
-77 -37 -99 -41 -58 -9 -68 -17 -53 -43 9 -18 7 -32 -16 -79 -76 -162 -249
-378 -407 -505 -54 -44 -67 -80 -18 -51 24 14 33 15 45 5 23 -19 40 -110 27
-143 -14 -37 -53 -38 -69 -3 -6 14 -16 25 -22 25 -7 0 -8 -6 0 -19 19 -37 -2
-166 -30 -181 -40 -22 -59 -12 -72 34 l-12 45 -29 -40 c-20 -27 -36 -39 -53
-39 -13 0 -24 1 -25 3 -7 37 -9 87 -2 87 13 0 46 67 39 79 -4 6 -18 11 -31 11
-21 0 -24 -5 -27 -47 -2 -27 -7 -47 -13 -46 -12 3 -55 213 -43 213 4 0 8 8 8
18 0 14 -8 19 -29 19 -77 0 -156 131 -105 174 14 12 20 9 46 -21 l29 -35 -27
60 c-20 45 -29 86 -36 160 -4 55 -13 125 -18 154 -11 60 -2 83 24 62 8 -7 36
-48 61 -92 41 -69 89 -211 128 -374 3 -11 5 2 6 28 0 27 13 94 27 150 15 56
42 176 61 267 49 237 50 242 67 276 15 29 14 34 -9 82 -14 29 -25 62 -25 74 1
49 71 225 93 234 8 3 34 -8 58 -23 24 -16 63 -38 86 -49 47 -21 58 -50 21 -56
-12 -2 -23 -9 -26 -15 -4 -15 30 -17 44 -3 29 29 285 -6 307 -42 8 -12 4 -23
-16 -48 -15 -17 -27 -41 -27 -53 l0 -20 23 20 c12 12 31 23 42 25 12 2 25 19
35 49 18 49 95 173 126 201 96 89 201 135 311 137 44 1 53 -2 58 -20z m-2679
-108 c8 -36 12 -67 9 -69 -12 -12 -38 12 -55 50 -16 34 -20 38 -20 19 0 -13
11 -44 25 -68 20 -33 32 -43 53 -44 15 0 36 -4 46 -8 18 -7 18 -8 2 -14 -9 -4
-24 -21 -32 -39 -8 -18 -25 -51 -39 -73 -13 -22 -29 -62 -36 -88 -7 -26 -19
-53 -26 -58 -20 -17 -48 -1 -61 34 -27 75 -3 163 55 197 35 20 35 21 17 41
-25 28 -44 86 -44 138 0 41 1 43 24 37 14 -3 28 -1 31 5 4 5 14 9 23 7 10 -2
20 -24 28 -67z m525 32 c25 -63 45 -96 61 -101 21 -5 32 -32 19 -45 -42 -42
-171 98 -141 153 16 29 48 25 61 -7z m-226 -163 c22 -11 45 -20 51 -20 6 0 22
-9 35 -19 19 -16 22 -22 12 -32 -10 -10 -16 -10 -25 -1 -14 14 -38 16 -38 2 0
-13 70 -42 87 -36 9 4 11 14 7 32 -6 25 -5 27 17 20 58 -17 106 -17 161 2 71
24 85 17 64 -29 -19 -43 -51 -77 -101 -109 -101 -64 -146 -75 -117 -30 10 17
10 20 -3 20 -9 0 -15 -9 -15 -25 0 -31 -28 -45 -42 -21 -6 11 -14 14 -25 7 -9
-4 -24 -6 -34 -4 -14 4 -19 0 -19 -17 0 -13 -5 -20 -12 -17 -7 2 -13 10 -13
18 0 8 -11 15 -25 17 -23 2 -24 1 -7 -11 9 -8 17 -18 17 -23 0 -4 -5 -3 -12 4
-7 7 -25 12 -40 12 -26 0 -28 2 -22 28 l7 27 -25 -22 c-13 -13 -31 -23 -39
-23 -8 0 -32 -9 -54 -20 -21 -11 -40 -18 -42 -16 -2 1 6 14 16 28 l20 25 -23
-4 c-13 -3 -27 0 -31 7 -8 14 -35 -32 -35 -61 0 -11 -4 -19 -10 -19 -13 0 -13
6 5 90 14 64 46 128 98 192 38 48 146 62 212 28z m2854 6 c17 -20 -5 -30 -94
-46 -68 -11 -282 -50 -395 -71 -55 -10 -99 -25 -178 -60 -52 -23 -63 -19 -52
21 20 69 47 96 88 91 8 -1 87 2 176 8 155 11 357 40 407 60 33 13 35 13 48 -3z
m-2449 -171 c0 -8 -4 -15 -10 -15 -5 0 -10 7 -10 15 0 8 5 15 10 15 6 0 10 -7
10 -15z m-25 -124 c-22 -80 -53 -144 -94 -191 -31 -35 -31 -35 8 40 21 41 48
107 61 145 32 104 32 102 37 86 3 -7 -3 -43 -12 -80z m1670 -71 c14 -23 35
-205 42 -357 12 -298 -28 -553 -127 -813 -65 -169 -192 -407 -283 -525 -56
-75 -233 -262 -310 -330 -67 -59 -69 -60 -135 -64 -37 -2 -568 -5 -1180 -7
l-1114 -4 -51 39 c-29 22 -61 48 -72 58 -11 10 -46 39 -77 66 -32 26 -64 60
-72 75 -28 56 -46 211 -45 395 1 117 -2 182 -9 189 -8 8 -14 4 -22 -16 -5 -15
-10 -36 -10 -46 0 -29 -11 -50 -26 -50 -17 0 -91 75 -108 110 -32 62 -42 160
-17 160 4 0 25 -13 47 -30 38 -29 74 -39 74 -21 0 5 -10 22 -22 38 -76 95
-135 219 -150 317 -19 127 10 128 152 6 96 -81 110 -90 110 -67 0 13 -96 116
-161 173 -42 37 -49 63 -49 189 0 103 10 134 58 189 39 44 66 45 70 1 4 -40
52 -234 62 -254 5 -9 21 -42 36 -73 23 -49 68 -98 79 -86 2 2 -7 23 -21 48
-111 207 -114 282 -17 475 30 61 109 130 137 119 22 -9 25 -27 16 -96 -22
-151 -5 -360 35 -438 17 -33 54 -74 60 -68 3 2 -7 33 -22 68 -23 57 -24 68
-13 98 19 52 136 152 161 137 13 -9 8 -48 -20 -165 -15 -59 -21 -111 -19 -169
3 -94 -3 -104 -72 -115 -74 -12 -51 -24 42 -23 106 2 137 -5 118 -28 -9 -10
-23 -13 -49 -9 -22 3 -50 -1 -73 -10 -43 -18 -65 -44 -27 -31 13 4 47 10 76
12 59 5 70 -8 53 -67 -23 -80 -2 -82 25 -2 22 64 101 151 232 256 121 97 175
175 282 411 28 61 61 124 74 140 31 40 121 88 147 80 28 -9 53 -50 74 -120 9
-33 21 -69 26 -80 5 -11 21 -60 35 -110 20 -72 25 -111 25 -200 -1 -118 -5
-131 -58 -189 -31 -34 -32 -38 -30 -116 1 -63 -3 -85 -15 -97 -15 -15 -21 -14
-72 21 -33 23 -55 46 -55 57 0 10 16 46 36 80 51 86 84 213 83 314 l-1 80 -19
-84 c-40 -173 -103 -322 -177 -419 -66 -86 -70 -134 -7 -63 21 23 44 41 52 41
8 0 45 -20 82 -45 155 -104 227 -226 195 -331 -23 -76 -70 -121 -181 -169
-123 -55 -181 -64 -431 -66 -153 -2 -236 1 -243 8 -7 7 5 26 40 65 47 52 90
77 156 94 28 7 29 8 6 12 -43 7 -88 -8 -157 -54 -45 -29 -68 -50 -66 -61 2 -8
-2 -29 -9 -45 -17 -43 3 -62 51 -47 59 17 123 20 231 10 70 -7 128 -7 178 0
87 12 113 1 71 -32 -14 -10 -31 -24 -38 -30 -8 -6 -38 -24 -67 -40 -116 -62
-235 -156 -235 -186 0 -32 36 -40 71 -14 35 26 40 26 72 1 31 -25 82 -36 91
-21 11 17 41 13 61 -9 13 -15 31 -20 68 -20 33 0 61 -7 84 -21 38 -24 83 -21
114 7 13 12 28 14 51 10 92 -19 99 -19 129 3 23 17 37 20 64 15 32 -6 39 -2
70 30 26 28 41 36 69 36 38 0 58 15 82 62 12 24 20 29 39 24 27 -7 71 8 99 32
12 11 35 17 68 17 45 0 52 3 79 37 27 33 33 36 69 31 37 -5 44 -2 80 36 23 24
48 41 61 41 34 0 157 135 165 180 3 19 15 71 25 115 11 44 23 117 26 163 3 45
10 85 15 88 5 4 20 -3 32 -15 57 -54 95 -561 64 -857 -6 -63 -8 -117 -5 -121
4 -4 14 0 23 9 12 12 17 53 22 204 4 104 7 239 6 299 -1 104 -23 357 -39 436
-9 46 5 56 34 23 16 -19 27 -23 44 -18 32 10 67 35 67 47 0 6 7 18 16 28 8 9
15 36 16 59 0 36 4 43 27 51 59 21 83 128 46 209 l-18 41 121 117 c66 64 126
128 131 142 6 14 32 54 58 90 26 36 64 105 84 153 34 83 39 90 84 113 27 13
54 24 61 24 6 0 19 11 28 25 17 26 40 33 51 15z m-2335 -10 c0 -5 -4 -10 -10
-10 -5 0 -10 5 -10 10 0 6 5 10 10 10 6 0 10 -4 10 -10z m-20 -70 c33 -32 38
-61 16 -80 -8 -6 -29 -34 -46 -61 -20 -31 -39 -49 -51 -49 -30 0 -33 24 -10
76 12 25 21 53 21 61 0 17 27 83 34 83 3 0 19 -13 36 -30z m767 -198 c-22 -22
-28 -23 -42 -12 -21 18 -16 56 8 52 9 -2 25 2 35 7 28 16 28 -18 -1 -47z
m-263 -248 c5 -12 14 -15 36 -10 22 4 30 2 30 -9 0 -15 -37 -45 -56 -45 -12 0
-34 42 -34 65 0 20 16 19 24 -1z m574 -1116 c-3 -7 -13 -15 -24 -17 -16 -3
-17 -1 -5 13 16 19 34 21 29 4z m-138 -68 c0 -12 -40 -34 -47 -26 -9 8 17 36
33 36 8 0 14 -4 14 -10z m-170 -45 c0 -9 -7 -18 -16 -22 -18 -7 -39 11 -30 26
11 17 46 13 46 -4z m-144 -102 c-10 -10 -19 5 -10 18 6 11 8 11 12 0 2 -7 1
-15 -2 -18z m-731 -43 c0 -10 -12 -16 -32 -18 -24 -2 -34 2 -43 18 -11 20 -9
21 32 18 30 -2 43 -7 43 -18z m283 -68 c3 -9 -3 -13 -19 -10 -12 1 -24 9 -27
16 -3 9 3 13 19 10 12 -1 24 -9 27 -16z m164 6 c-9 -9 -15 -9 -24 0 -9 9 -7
12 12 12 19 0 21 -3 12 -12z m3173 -242 c16 -8 39 -30 50 -48 20 -32 20 -51
20 -790 0 -753 0 -757 -21 -785 -12 -15 -36 -36 -53 -47 -32 -18 -110 -19
-3066 -18 -2767 1 -3036 2 -3065 17 -17 9 -40 30 -50 48 -19 31 -20 56 -20
787 0 730 1 756 20 787 34 56 42 58 335 63 149 3 1519 4 3045 3 2384 -3 2779
-5 2805 -17z"/>
<path d="M6110 5480 c0 -5 4 -10 9 -10 6 0 13 5 16 10 3 6 -1 10 -9 10 -9 0
-16 -4 -16 -10z"/>
<path d="M6010 5469 c0 -5 5 -7 10 -4 6 3 10 8 10 11 0 2 -4 4 -10 4 -5 0 -10
-5 -10 -11z"/>
<path d="M6385 5270 c3 -5 8 -10 11 -10 2 0 4 5 4 10 0 6 -5 10 -11 10 -5 0
-7 -4 -4 -10z"/>
<path d="M6885 5180 c-3 -5 1 -10 10 -10 9 0 13 5 10 10 -3 6 -8 10 -10 10 -2
0 -7 -4 -10 -10z"/>
<path d="M5665 4310 c3 -5 8 -10 11 -10 2 0 4 5 4 10 0 6 -5 10 -11 10 -5 0
-7 -4 -4 -10z"/>
<path d="M8193 6675 c-9 -25 4 -29 17 -6 7 15 7 21 0 21 -6 0 -13 -7 -17 -15z"/>
<path d="M8010 6345 c0 -8 5 -15 10 -15 6 0 10 7 10 15 0 8 -4 15 -10 15 -5 0
-10 -7 -10 -15z"/>
<path d="M8595 6050 c-3 -5 -1 -10 4 -10 6 0 11 5 11 10 0 6 -2 10 -4 10 -3 0
-8 -4 -11 -10z"/>
<path d="M8350 5490 c0 -5 5 -10 11 -10 5 0 7 5 4 10 -3 6 -8 10 -11 10 -2 0
-4 -4 -4 -10z"/>
<path d="M8285 5480 c-3 -5 -1 -10 4 -10 6 0 11 5 11 10 0 6 -2 10 -4 10 -3 0
-8 -4 -11 -10z"/>
<path d="M7672 6460 c-97 -9 -162 -34 -162 -63 0 -15 5 -18 23 -13 12 3 63 13
112 22 88 16 135 35 135 54 0 6 -6 9 -12 9 -7 -1 -50 -5 -96 -9z"/>
<path d="M8790 5532 c0 -21 58 -55 149 -87 51 -18 181 -21 181 -4 0 7 -12 9
-31 7 -40 -6 -169 16 -213 37 -19 9 -42 25 -52 36 -18 20 -34 25 -34 11z"/>
<path d="M8360 4871 c0 -5 5 -13 10 -16 6 -3 10 -2 10 4 0 5 -4 13 -10 16 -5
3 -10 2 -10 -4z"/>
<path d="M8422 4711 c2 -19 9 -37 17 -39 11 -4 12 2 7 24 -11 45 -28 55 -24
15z"/>
<path d="M8757 4464 c-10 -13 -14 -24 -10 -24 9 0 36 40 31 45 -2 2 -11 -8
-21 -21z"/>
<path d="M6265 4391 c-42 -10 -171 -97 -195 -131 -37 -52 -24 -80 46 -93 47
-9 154 -60 154 -74 0 -7 -11 -29 -25 -50 -14 -20 -25 -46 -23 -58 3 -18 9 -20
67 -17 92 5 124 21 44 21 -55 1 -63 3 -63 20 0 36 110 117 215 158 15 5 7 8
-28 11 -39 2 -58 -3 -101 -28 -51 -29 -56 -30 -88 -16 -18 7 -60 24 -93 36
-97 35 -105 39 -105 50 0 19 61 67 127 101 51 26 79 33 143 37 113 6 105 20
-20 37 -14 2 -39 0 -55 -4z"/>
<path d="M6447 4375 c-18 -13 -18 -14 2 -24 27 -15 41 -14 41 3 0 24 -23 36
-43 21z"/>
<path d="M6510 4302 c0 -4 19 -25 43 -47 66 -63 225 -124 389 -150 185 -29
251 -13 76 19 -136 24 -248 51 -306 72 -57 22 -154 77 -172 99 -13 16 -30 20
-30 7z"/>
<path d="M6458 3983 c7 -3 16 -2 19 1 4 3 -2 6 -13 5 -11 0 -14 -3 -6 -6z"/>
<path d="M8640 3590 c0 -5 5 -10 10 -10 6 0 10 5 10 10 0 6 -4 10 -10 10 -5 0
-10 -4 -10 -10z"/>
<path d="M4464 3265 c-58 -24 -57 -9 -56 -805 1 -502 4 -735 12 -749 25 -48
-131 -46 3065 -49 2234 -1 3017 1 3038 9 15 7 37 23 47 37 19 24 20 44 20 750
0 709 0 727 -20 768 -20 41 -22 42 -83 48 -34 3 -1396 5 -3027 5 -2392 -1
-2971 -3 -2996 -14z m2126 -120 c34 -18 70 -73 70 -108 0 -15 -17 -47 -42 -78
-90 -110 -84 -80 -92 -479 -4 -196 -4 -374 0 -397 4 -29 17 -53 42 -78 38 -38
55 -32 28 10 -27 42 -46 135 -46 230 0 154 41 266 128 347 60 56 111 83 194
103 86 20 115 19 205 -10 67 -21 87 -33 144 -87 41 -40 69 -76 75 -97 5 -19
15 -36 22 -39 11 -3 13 27 10 150 l-3 155 -32 37 c-56 63 -35 128 46 142 73
11 138 37 220 87 103 62 143 66 217 20 40 -24 50 -35 52 -61 3 -27 -4 -40 -46
-80 l-50 -49 -3 -351 c-3 -260 -1 -354 8 -363 9 -9 25 -6 70 12 32 13 61 26
65 29 11 9 27 475 19 537 -6 40 -16 61 -44 92 -42 47 -40 41 -27 76 12 32 64
55 124 55 77 0 189 53 296 139 34 28 78 25 125 -7 49 -34 64 -71 44 -108 -8
-15 -22 -29 -31 -32 -10 -2 -28 -20 -40 -40 -18 -29 -24 -63 -34 -191 -17
-205 -6 -571 17 -571 6 0 25 11 43 25 18 14 47 28 64 31 36 7 38 13 46 119 8
123 68 243 154 307 61 46 82 57 148 74 110 28 208 14 304 -45 58 -35 65 -37
52 -15 -12 22 -4 54 20 80 18 20 18 21 -3 40 -12 10 -30 37 -40 59 -67 146 53
263 236 228 59 -11 73 -18 95 -45 67 -86 75 -146 31 -245 -17 -39 -31 -73 -31
-76 0 -2 24 8 53 22 47 23 63 26 162 25 95 -1 116 -4 155 -24 84 -43 115 -82
168 -211 47 -114 32 -159 -55 -159 -50 0 -57 -18 -17 -44 14 -10 38 -38 55
-64 56 -88 34 -222 -50 -313 -56 -60 -112 -79 -241 -79 -130 0 -208 34 -281
122 -36 44 -85 120 -112 173 l-15 30 -7 -30 c-10 -51 -48 -115 -98 -171 -104
-115 -302 -164 -436 -108 -82 34 -200 134 -201 169 0 5 -10 21 -21 35 -16 19
-22 22 -26 11 -3 -8 -38 -47 -77 -86 -53 -52 -92 -81 -150 -109 -73 -35 -85
-38 -143 -33 -54 4 -70 10 -107 41 -30 24 -51 54 -67 91 -12 30 -28 55 -35 55
-7 0 -24 -10 -38 -22 -13 -13 -41 -36 -63 -51 -21 -15 -56 -42 -78 -59 -59
-45 -97 -58 -173 -58 -58 0 -75 4 -115 30 -52 33 -82 74 -99 138 -14 49 -24
53 -41 15 -17 -39 -44 -69 -101 -110 -77 -55 -131 -74 -231 -80 -112 -6 -177
15 -264 88 -32 27 -62 49 -65 49 -3 0 -5 -15 -4 -33 1 -40 -13 -69 -48 -96
-35 -28 -65 -26 -128 5 -33 17 -79 30 -130 35 -47 6 -92 17 -111 29 -27 17
-34 18 -57 6 -73 -38 -130 -49 -232 -43 -61 3 -121 12 -151 23 -58 21 -148 84
-171 119 -9 14 -21 25 -28 25 -6 0 -37 -26 -69 -58 -79 -80 -150 -114 -248
-120 -106 -6 -146 16 -191 105 l-32 63 13 236 c12 235 12 237 -9 278 -34 64
-20 87 75 126 29 12 29 12 9 28 -46 37 -52 124 -13 179 46 65 176 141 257 150
34 5 50 1 83 -21 40 -27 69 -75 69 -114 0 -21 -23 -76 -42 -104 -10 -13 -6
-23 20 -52 18 -20 32 -46 32 -57 0 -27 -26 -75 -44 -82 -34 -13 -43 -59 -50
-259 -8 -220 -11 -213 59 -184 37 16 38 17 35 83 -4 95 60 236 139 311 127
119 290 162 429 111 108 -40 102 -42 102 42 -1 107 -13 155 -44 180 -31 24
-35 68 -8 92 9 8 40 23 67 32 28 8 58 20 67 25 10 6 24 10 31 10 8 0 52 25 98
56 119 80 137 86 189 59z m3731 -61 c36 -18 62 -73 53 -109 -8 -33 -59 -75
-90 -75 -39 0 -81 27 -92 59 -19 53 11 115 62 130 17 5 32 10 34 10 2 1 17 -6
33 -15z m-5694 -540 c-3 -3 -12 -4 -19 -1 -8 3 -5 6 6 6 11 1 17 -2 13 -5z"/>
<path d="M6479 3072 c-93 -60 -105 -67 -126 -79 -13 -6 -53 -22 -90 -34 -86
-28 -92 -33 -66 -61 12 -13 26 -35 32 -50 8 -22 16 -235 12 -320 -1 -22 -29
-24 -37 -3 -8 21 -115 72 -181 85 -109 23 -230 -19 -325 -111 -143 -140 -162
-358 -43 -483 16 -16 62 -45 104 -64 71 -34 82 -37 176 -37 98 0 102 1 185 43
47 23 89 42 93 42 5 0 15 -16 23 -35 8 -19 20 -35 27 -35 61 -2 165 -24 204
-43 50 -25 70 -25 90 2 20 26 15 40 -26 79 -70 66 -69 53 -57 732 3 162 7 173
79 262 61 75 61 75 37 108 -27 38 -54 38 -111 2z m-289 -695 l45 -22 3 -76 3
-77 -33 -20 c-57 -34 -129 -54 -174 -47 -120 18 -176 154 -91 219 47 36 75 45
142 45 42 0 74 -6 105 -22z"/>
<path d="M6021 2336 c-32 -11 -71 -48 -71 -67 0 -4 14 -24 31 -44 27 -31 37
-35 78 -35 58 0 125 36 129 69 7 46 -6 70 -46 80 -47 14 -78 13 -121 -3z"/>
<path d="M8215 3005 c-27 -25 -56 -45 -64 -45 -7 0 -28 -9 -46 -20 -41 -25
-142 -51 -186 -48 -28 3 -35 -1 -37 -19 -2 -14 4 -26 18 -33 42 -23 45 -47 45
-420 0 -349 0 -356 23 -410 28 -66 55 -97 102 -117 45 -19 81 -13 164 28 50
24 86 52 133 103 35 39 69 78 74 88 17 31 -17 33 -55 4 -54 -41 -81 -48 -106
-28 -19 15 -23 33 -30 122 -12 137 -12 361 0 528 8 116 12 139 37 183 15 29
38 56 50 62 29 13 29 32 1 51 -37 26 -69 19 -123 -29z"/>
<path d="M7644 3020 c-33 -33 -200 -110 -266 -123 -64 -13 -78 -29 -47 -55 57
-48 60 -76 49 -587 -5 -238 -5 -240 19 -286 38 -76 133 -111 215 -79 31 11
161 107 218 160 24 22 46 40 51 40 4 0 7 9 7 20 0 25 -13 25 -69 0 -45 -21
-97 -26 -119 -12 -29 19 -32 80 -26 440 l7 363 34 29 c19 17 38 30 43 30 6 0
10 9 10 20 0 35 -99 67 -126 40z"/>
<path d="M9215 2989 c-43 -15 -70 -56 -69 -105 1 -53 28 -90 79 -107 62 -21
59 -45 -13 -88 -44 -26 -33 -39 34 -39 56 0 108 19 132 49 30 37 62 113 63
148 2 52 -29 114 -66 132 -38 18 -121 23 -160 10z"/>
<path d="M5320 2957 c-49 -16 -146 -83 -170 -117 -28 -39 -27 -96 2 -111 30
-16 113 -5 178 24 125 56 162 158 74 200 -40 19 -37 19 -84 4z"/>
<path d="M5375 2697 c-11 -8 -81 -33 -155 -57 -74 -24 -139 -47 -145 -52 -6
-5 -2 -21 10 -41 16 -27 18 -46 15 -117 -3 -47 -5 -166 -5 -265 0 -178 0 -181
25 -212 43 -54 93 -65 188 -41 58 14 98 42 168 114 63 65 60 85 -7 55 -88 -40
-108 -24 -104 84 14 376 19 408 61 450 39 39 42 55 16 78 -22 21 -41 21 -67 4z"/>
<path d="M9521 2655 c-52 -16 -92 -53 -127 -115 -22 -39 -25 -54 -21 -108 3
-34 11 -69 18 -78 16 -20 113 -84 127 -84 15 0 101 -42 149 -72 52 -34 73 -64
73 -104 0 -39 -27 -64 -69 -64 -35 0 -51 25 -51 79 0 47 -16 52 -151 49 -150
-4 -152 -6 -81 -110 64 -94 105 -131 166 -152 106 -35 269 -11 320 47 43 49
66 105 66 167 0 49 -4 60 -37 100 -41 50 -84 80 -186 130 -94 46 -118 86 -81
138 22 32 64 26 81 -10 43 -92 28 -83 133 -83 l95 0 -3 33 c-3 45 -47 135 -86
180 -48 55 -96 72 -201 71 -49 0 -110 -6 -134 -14z"/>
<path d="M8811 2648 c-67 -11 -131 -47 -184 -101 -74 -77 -107 -168 -107 -297
0 -134 30 -212 107 -280 56 -49 100 -73 167 -89 59 -15 108 -8 198 26 107 39
196 140 212 239 11 62 -3 68 -132 61 -118 -8 -125 -12 -136 -76 -7 -45 -40
-91 -66 -91 -10 0 -26 12 -36 28 -17 24 -19 47 -19 187 1 188 7 229 39 251 59
38 101 -16 94 -121 l-3 -50 -44 -5 c-58 -7 -76 -33 -42 -61 21 -17 40 -19 168
-19 80 0 153 5 164 10 39 22 13 177 -46 266 -21 33 -117 103 -156 115 -44 14
-123 17 -178 7z"/>
<path d="M6860 2638 c-52 -12 -143 -73 -182 -122 -86 -108 -102 -371 -30 -485
28 -44 94 -101 152 -129 47 -23 67 -27 140 -26 65 1 97 6 135 23 109 49 204
164 208 253 2 52 -6 55 -146 48 l-102 -5 -13 -45 c-25 -86 -40 -110 -67 -110
-16 0 -31 10 -42 27 -16 24 -18 51 -17 203 0 208 10 240 70 240 30 0 37 -4 48
-32 8 -18 16 -54 19 -81 4 -40 1 -50 -16 -62 -12 -8 -36 -15 -54 -15 -28 0
-33 -4 -33 -23 0 -43 15 -47 181 -47 133 0 160 3 174 16 20 21 14 70 -21 171
-21 60 -35 81 -79 121 -29 27 -70 57 -92 68 -45 22 -165 28 -233 12z"/>
<path d="M9295 2600 c-22 -5 -62 -6 -90 -2 l-49 5 22 -34 c65 -99 95 -196 90
-298 -2 -64 -1 -75 12 -71 8 2 57 6 108 8 86 3 115 14 75 29 -38 14 -109 76
-127 111 -27 50 -25 149 3 203 33 63 32 64 -44 49z"/>
<path d="M6957 2443 c-14 -13 -7 -63 8 -63 9 0 15 9 15 23 0 26 -14 50 -23 40z"/>
<path d="M8877 2444 c-4 -4 -7 -18 -7 -31 0 -28 23 -27 28 1 4 20 -11 40 -21
30z"/>
<path d="M8864 2186 c-7 -20 2 -46 16 -46 13 0 13 47 0 55 -6 3 -13 -1 -16 -9z"/>
<path d="M6945 2170 c-7 -21 0 -40 16 -40 5 0 9 14 9 30 0 34 -15 40 -25 10z"/>
<path d="M10242 3048 c-14 -14 -16 -94 -4 -102 5 -3 25 -3 45 1 33 5 36 9 43
46 5 33 3 43 -12 54 -22 16 -56 17 -72 1z m53 -38 c3 -5 -1 -10 -9 -10 -9 0
-16 5 -16 10 0 6 4 10 9 10 6 0 13 -4 16 -10z"/>
<path d="M12783 7520 c-47 -15 -103 -102 -103 -161 0 -49 21 -86 101 -180 43
-49 49 -63 55 -115 10 -87 8 -94 -28 -125 -36 -31 -63 -36 -75 -16 -11 18 -68
37 -112 37 -20 0 -62 9 -93 20 -41 14 -64 17 -80 11 -13 -5 -35 -12 -50 -15
-19 -4 -28 -13 -28 -26 0 -11 -9 -24 -20 -30 -11 -6 -18 -15 -15 -21 4 -5 1
-9 -4 -9 -6 0 -11 4 -11 8 0 5 -29 5 -65 0 -42 -6 -72 -5 -84 2 -11 5 -31 10
-45 10 -14 0 -29 6 -33 14 -4 7 -22 21 -40 30 -40 20 -55 45 -41 69 15 28 2
47 -33 47 -18 0 -29 3 -26 7 4 3 -1 15 -10 25 -17 19 -16 20 7 39 14 10 32 19
40 19 8 0 26 17 40 38 14 20 33 45 44 54 17 16 17 18 2 24 -9 3 -23 1 -31 -6
-8 -6 -23 -9 -33 -6 -13 5 -22 -1 -30 -19 -6 -14 -18 -25 -27 -25 -8 0 -15 -5
-15 -10 0 -6 -12 -15 -26 -20 -24 -9 -26 -14 -22 -63 2 -38 0 -51 -9 -50 -25
5 -4 -176 23 -198 11 -9 14 -8 14 2 1 21 30 -63 30 -87 0 -24 18 -44 41 -44
20 0 34 -34 48 -110 5 -30 12 -63 16 -72 4 -11 0 -20 -14 -28 -12 -6 -21 -16
-21 -22 0 -15 31 -37 52 -38 9 0 18 -5 20 -12 4 -10 14 -9 45 1 30 10 49 11
74 3 19 -6 55 -13 82 -16 53 -6 93 -29 102 -57 4 -11 15 -19 29 -19 14 0 34
-14 54 -39 19 -23 44 -42 61 -46 16 -3 40 -21 54 -38 24 -32 29 -46 50 -144 6
-29 15 -53 19 -53 11 0 -47 -82 -79 -111 -52 -47 -139 -38 -181 20 -26 35 -43
44 -58 29 -11 -11 -54 -10 -54 2 0 38 -161 52 -218 19 -18 -10 -39 -19 -46
-19 -8 0 -19 -13 -26 -30 -9 -21 -19 -30 -36 -30 -13 0 -28 -6 -34 -12 -6 -7
-21 -26 -35 -41 -14 -15 -25 -32 -25 -38 0 -18 -24 -36 -42 -31 -15 4 -18 -2
-18 -33 0 -30 -3 -35 -18 -31 -12 4 -28 -4 -47 -24 -16 -16 -39 -30 -51 -30
-36 0 -61 -35 -67 -93 -4 -29 -9 -62 -12 -73 -5 -17 0 -25 24 -37 24 -12 32
-13 41 -2 6 7 31 15 57 18 28 3 50 11 55 21 5 10 21 21 34 26 13 5 24 17 24
26 0 12 9 15 43 13 23 -1 63 1 88 6 37 5 53 3 73 -10 26 -17 27 -17 41 1 13
18 15 18 41 2 18 -10 32 -30 39 -55 8 -27 17 -39 33 -41 12 -2 23 -8 23 -13 1
-5 2 -13 3 -17 3 -23 71 -92 111 -113 25 -13 45 -28 45 -34 0 -5 12 -23 27
-40 23 -27 32 -30 81 -29 44 0 58 4 72 22 10 12 23 22 28 22 6 0 12 4 14 9 2
5 25 15 52 22 39 11 53 21 69 49 36 66 91 130 110 130 30 0 87 68 87 105 0 33
20 85 33 85 11 0 9 34 -3 46 -14 14 -3 42 20 49 10 3 20 12 23 19 8 20 100 31
129 15 12 -6 26 -16 29 -21 4 -6 43 -12 87 -15 62 -4 87 -2 112 11 18 9 41 16
50 16 10 0 23 6 29 14 27 33 65 35 125 9 31 -14 56 -32 56 -40 0 -7 11 -19 25
-25 14 -6 25 -17 25 -23 0 -19 21 -32 65 -39 37 -6 43 -4 88 38 37 34 49 52
50 77 1 20 9 36 22 43 11 6 23 14 26 19 3 4 33 8 67 9 46 1 67 7 79 20 10 11
20 15 27 9 31 -26 76 -13 76 21 0 28 74 98 104 98 13 0 29 7 36 15 7 8 19 15
26 15 8 0 14 6 14 14 0 7 7 19 15 26 8 7 15 24 15 39 0 14 7 39 15 55 8 15 17
40 20 55 6 33 44 66 59 51 5 -5 17 -10 26 -10 9 0 22 -11 28 -25 6 -14 18 -25
27 -25 8 0 15 -4 15 -9 0 -4 16 -25 35 -45 19 -21 35 -42 35 -47 0 -5 11 -11
25 -15 15 -4 25 -13 25 -24 0 -32 59 -66 127 -72 69 -7 103 8 103 44 0 11 9
33 21 49 18 26 19 33 8 66 -9 28 -9 38 0 41 6 2 11 9 11 15 0 15 68 117 78
117 4 0 24 -11 45 -23 36 -22 38 -25 22 -40 -16 -17 -12 -42 6 -32 8 6 13 -8
10 -27 -2 -16 19 -59 27 -54 5 3 6 -9 4 -25 -3 -17 -12 -33 -21 -37 -18 -6
-41 -27 -41 -36 0 -3 11 -6 24 -6 13 0 26 -5 28 -11 2 -7 13 -9 27 -4 14 4 20
12 17 21 -7 17 34 20 51 3 13 -13 79 -8 76 6 -2 6 -6 10 -10 10 -5 0 -14 4
-21 9 -7 4 -25 5 -39 1 -22 -5 -24 -4 -15 7 17 22 4 60 -19 53 -11 -4 -19 -2
-19 5 0 6 -4 8 -10 5 -6 -3 -7 1 -4 10 5 12 18 16 53 14 25 -1 56 1 69 5 33
11 70 -1 77 -24 3 -11 11 -20 17 -20 5 0 7 8 4 17 -4 9 -1 20 6 25 22 13 30 9
27 -14 -1 -13 2 -75 7 -138 l9 -115 6 150 c9 213 9 491 -1 550 -4 28 -8 40 -9
28 -3 -60 -25 -69 -47 -18 -18 44 -35 45 -32 4 2 -20 -2 -34 -11 -37 -10 -3
-13 3 -9 27 3 21 0 31 -9 31 -7 0 -13 -6 -13 -12 0 -7 -8 -4 -16 7 -11 14 -14
34 -11 67 5 56 1 58 -120 58 -66 0 -84 3 -91 16 -6 11 -17 15 -32 11 -18 -5
-24 1 -36 29 -11 26 -21 34 -42 36 -52 3 -83 -2 -110 -20 -14 -9 -35 -18 -47
-20 -11 -1 -41 -5 -66 -8 -33 -4 -56 -1 -78 10 -37 20 -38 23 -9 53 19 21 22
36 24 120 1 80 4 98 19 109 15 11 16 16 5 29 -10 13 -15 13 -21 3 -7 -10 -14
-10 -41 1 -18 8 -47 13 -64 12 -42 -1 -104 25 -104 45 0 8 -7 29 -16 45 -12
25 -20 30 -38 25 -17 -4 -31 2 -50 19 -21 19 -36 25 -62 22 -56 -6 -137 -92
-164 -176 -16 -48 -32 -58 -75 -47 -19 5 -33 25 -39 58 0 4 -11 15 -23 23 -13
9 -23 22 -23 30 0 7 -10 15 -22 17 -24 3 -28 25 -13 62 8 17 5 19 -34 13 -45
-6 -64 -17 -43 -24 6 -3 12 -12 12 -21 0 -8 7 -23 15 -32 13 -14 13 -22 4 -46
-14 -34 -17 -45 -25 -99 -8 -50 -28 -74 -63 -74 -14 1 -37 -2 -51 -6 -34 -9
-113 33 -120 65 -5 22 -88 74 -160 99 -38 13 -95 -4 -138 -41 -18 -15 -40 -28
-48 -28 -10 0 -14 -6 -11 -14 7 -18 -39 -30 -76 -21 -22 6 -28 15 -38 63 -6
33 -9 85 -5 124 3 37 2 69 -3 72 -4 3 -11 21 -14 40 -5 34 -46 84 -87 106 -13
7 -50 14 -84 15 -34 2 -86 6 -116 9 -30 3 -69 1 -87 -4z m543 -577 c45 -19 59
-23 95 -27 14 -1 47 -19 74 -39 26 -20 52 -38 56 -38 5 -1 13 -2 18 -3 5 0 24
-12 43 -26 18 -14 46 -29 63 -35 16 -5 34 -20 41 -32 6 -13 18 -31 28 -42 21
-23 53 -83 71 -133 l14 -37 -32 -10 c-18 -6 -37 -21 -42 -33 -6 -13 -21 -28
-35 -35 -18 -9 -20 -13 -7 -13 26 0 20 -19 -9 -26 -21 -5 -31 -2 -43 15 -13
17 -23 21 -44 16 -15 -4 -27 -13 -27 -21 0 -22 -41 -37 -100 -38 -44 -1 -54
-4 -51 -16 3 -8 4 -28 3 -43 -1 -18 3 -25 10 -21 6 4 9 1 6 -7 -3 -8 -11 -14
-19 -15 -8 0 -22 -4 -31 -8 -20 -9 -88 21 -88 39 0 7 -13 18 -30 24 -24 8 -30
16 -30 39 0 32 19 55 41 50 8 -2 14 4 14 12 0 9 -7 14 -18 12 -22 -4 -35 27
-16 39 11 6 7 15 -18 41 -18 18 -32 38 -32 43 0 6 -7 11 -15 13 -9 2 -16 -3
-16 -12 0 -8 -13 -29 -30 -47 -16 -18 -30 -42 -32 -53 -2 -12 -10 -21 -21 -21
-10 0 -21 -5 -25 -10 -4 -6 -28 -22 -54 -35 -27 -14 -48 -28 -48 -32 0 -16
-26 -7 -57 20 -29 24 -33 35 -45 115 -12 86 -12 90 12 135 13 26 29 54 36 62
6 8 14 31 18 50 9 46 45 97 79 111 16 7 27 19 27 30 0 11 6 19 13 20 6 0 44 1
83 3 47 1 80 8 95 19 30 20 29 20 75 0z m834 -21 c1 -27 22 -48 61 -61 22 -7
39 -20 42 -31 6 -24 0 -28 -49 -35 -44 -5 -51 -11 -56 -44 -3 -27 -28 -42 -28
-17 0 9 -4 16 -10 16 -5 0 -10 -9 -10 -19 0 -33 -17 -33 -29 1 -14 39 -14 68
-1 68 26 0 47 37 49 85 2 27 5 53 8 58 7 12 23 -2 23 -21z m293 -26 c9 -7 17
-18 17 -25 0 -6 9 -11 20 -11 11 0 20 -4 20 -10 0 -5 -6 -10 -14 -10 -8 0 -16
-5 -18 -10 -2 -6 -22 -12 -46 -14 -32 -4 -42 -1 -42 10 0 9 -10 14 -27 14 -48
0 -57 13 -31 43 18 21 32 27 63 27 22 -1 48 -7 58 -14z m702 -166 c14 -22 25
-41 25 -44 0 -5 -34 -2 -40 4 -3 3 -18 13 -35 22 -47 26 -44 35 22 57 2 1 14
-17 28 -39z m-995 -65 c6 -15 17 -25 30 -25 11 0 20 -5 20 -11 0 -6 9 -9 20
-6 13 3 24 -1 29 -12 11 -19 3 -73 -9 -66 -5 3 -14 -1 -22 -8 -44 -44 -103
-49 -120 -11 -10 22 -9 32 9 64 14 23 20 49 18 69 -5 37 12 41 25 6z m-244
-188 c4 -4 1 -14 -6 -22 -10 -12 -10 -19 -2 -27 18 -18 15 -42 -8 -68 -17 -20
-20 -20 -26 -6 -3 9 -14 16 -24 16 -14 0 -18 7 -18 30 1 17 5 30 11 30 5 0 7
-9 4 -20 -3 -11 -2 -20 3 -20 13 0 30 53 26 77 -4 18 -1 22 14 20 11 -2 22 -6
26 -10z m74 -7 c0 -5 -4 -10 -10 -10 -5 0 -10 5 -10 10 0 6 5 10 10 10 6 0 10
-4 10 -10z m-1130 -571 c0 -5 -12 -9 -26 -9 -14 0 -23 4 -20 8 7 11 46 12 46
1z m-46 -94 c20 -15 20 -15 0 -15 -11 0 -25 5 -32 12 -9 9 -12 9 -12 0 0 -6
-7 -9 -15 -6 -8 4 -21 1 -28 -5 -10 -8 -14 -7 -14 4 0 8 2 13 4 11 2 -2 16 0
31 4 38 12 45 11 66 -5z m-298 -10 c4 -8 15 -15 25 -15 19 0 55 -55 51 -77 -2
-7 2 -13 9 -13 6 0 8 -7 5 -15 -7 -19 14 -55 32 -55 7 0 10 -4 7 -10 -9 -14
-148 -13 -163 2 -7 7 -12 20 -12 30 0 10 -7 30 -16 43 -10 15 -12 25 -5 25 6
0 10 3 9 8 -1 6 8 48 18 80 5 17 33 15 40 -3z m-646 -166 c0 -6 -4 -7 -10 -4
-5 3 -10 11 -10 16 0 6 5 7 10 4 6 -3 10 -11 10 -16z"/>
<path d="M12016 7346 c-21 -33 -20 -36 5 -36 27 0 80 31 76 45 -2 5 -17 11
-34 13 -23 2 -34 -3 -47 -22z"/>
<path d="M15226 7294 c-12 -31 -6 -64 17 -86 33 -32 84 -68 97 -68 5 0 10 -9
10 -20 0 -12 11 -31 25 -44 13 -12 35 -46 48 -74 l24 -52 7 46 c8 60 8 131 -1
229 -5 68 -8 76 -19 60 -12 -16 -18 -17 -39 -7 -14 7 -39 12 -55 12 -16 0 -32
5 -35 10 -10 17 -72 12 -79 -6z"/>
<path d="M14796 7293 c-11 -11 -6 -23 9 -23 8 0 15 4 15 9 0 13 -16 22 -24 14z"/>
<path d="M11690 7261 c-17 -42 -10 -55 19 -34 23 16 23 17 5 24 -18 7 -18 8
-1 8 10 1 17 6 15 13 -8 23 -25 18 -38 -11z"/>
<path d="M14767 7254 c-3 -3 -3 -12 0 -20 3 -7 0 -27 -5 -44 -9 -24 -8 -30 3
-30 16 0 23 21 23 68 1 30 -7 40 -21 26z"/>
<path d="M11685 7091 c-9 -15 6 -91 18 -91 22 0 86 34 92 48 6 17 -14 34 -32
28 -6 -3 -14 2 -17 10 -6 16 -52 19 -61 5z"/>
<path d="M9860 6640 c0 -5 5 -10 10 -10 6 0 10 5 10 10 0 6 -4 10 -10 10 -5 0
-10 -4 -10 -10z"/>
<path d="M9623 6633 c-20 -7 -15 -23 6 -23 10 0 21 7 25 15 5 15 -7 18 -31 8z"/>
<path d="M9818 6633 c7 -3 16 -2 19 1 4 3 -2 6 -13 5 -11 0 -14 -3 -6 -6z"/>
<path d="M9975 6620 c3 -5 8 -10 11 -10 2 0 4 5 4 10 0 6 -5 10 -11 10 -5 0
-7 -4 -4 -10z"/>
<path d="M9440 6605 c0 -8 5 -15 10 -15 6 0 10 7 10 15 0 8 -4 15 -10 15 -5 0
-10 -7 -10 -15z"/>
<path d="M9365 6600 c3 -5 13 -10 21 -10 8 0 14 -4 14 -10 0 -5 5 -10 10 -10
19 0 10 17 -15 28 -32 15 -38 15 -30 2z"/>
<path d="M9975 6580 c-3 -5 -2 -10 4 -10 5 0 13 5 16 10 3 6 2 10 -4 10 -5 0
-13 -4 -16 -10z"/>
<path d="M11525 6526 c-22 -14 -62 -28 -90 -31 -49 -7 -103 -30 -117 -50 -14
-18 -8 -45 22 -110 17 -35 30 -69 30 -74 0 -5 9 -12 19 -16 40 -12 45 -31 26
-96 l-18 -59 28 -30 c16 -17 39 -30 51 -30 13 0 26 -4 29 -10 10 -16 43 -12
64 9 25 25 82 34 117 20 16 -7 46 -14 67 -15 33 -3 44 2 82 37 44 40 58 80 35
94 -12 8 -13 87 -1 101 4 5 13 30 20 57 14 58 5 80 -44 103 -19 9 -35 22 -35
29 0 19 -34 45 -59 45 -12 0 -41 9 -64 20 -66 32 -115 34 -162 6z"/>
<path d="M9810 6382 c0 -10 -5 -23 -11 -29 -17 -17 -2 -65 19 -61 19 3 27 45
18 84 -7 28 -26 32 -26 6z"/>
<path d="M9728 6283 c7 -3 16 -2 19 1 4 3 -2 6 -13 5 -11 0 -14 -3 -6 -6z"/>
<path d="M9770 6270 c-13 -9 -13 -11 -1 -19 17 -11 43 -3 38 12 -5 15 -20 18
-37 7z"/>
<path d="M11827 5993 c-11 -10 -8 -65 2 -58 5 3 9 19 9 35 -1 33 -1 33 -11 23z"/>
<path d="M15441 5474 c0 -11 3 -14 6 -6 3 7 2 16 -1 19 -3 4 -6 -2 -5 -13z"/>
<path d="M11622 5421 c-35 -32 -41 -51 -17 -51 8 0 15 7 15 15 0 9 6 12 15 9
20 -8 45 13 45 37 0 27 -21 23 -58 -10z"/>
<path d="M15442 5430 c0 -14 2 -19 5 -12 2 6 2 18 0 25 -3 6 -5 1 -5 -13z"/>
<path d="M11995 5071 c-3 -5 1 -15 8 -23 16 -16 16 -68 0 -86 -7 -7 -10 -19
-7 -27 11 -29 -60 -40 -105 -16 -11 6 -43 13 -70 16 l-50 5 -11 -41 c-15 -53
-9 -66 36 -78 28 -8 45 -7 72 4 25 11 76 15 188 15 147 0 154 1 178 24 19 16
34 22 53 18 22 -4 25 -2 20 12 -4 10 -7 29 -7 42 0 14 -11 34 -26 47 -14 12
-30 32 -35 45 -10 26 -59 31 -79 7 -7 -8 -28 -15 -48 -15 -19 0 -33 3 -29 6 3
3 -4 17 -16 30 -21 24 -61 32 -72 15z"/>
<path d="M14254 4783 c-12 -2 -26 -18 -34 -38 -8 -21 -21 -35 -31 -35 -18 0
-42 -23 -34 -32 3 -3 -13 -14 -36 -25 -38 -18 -41 -23 -44 -64 -3 -39 0 -47
27 -72 l31 -29 33 18 c19 10 34 23 34 29 1 17 116 113 144 121 19 5 29 15 33
35 3 16 10 32 14 35 15 9 10 31 -7 38 -9 4 -23 1 -30 -5 -10 -8 -20 -6 -40 10
-15 12 -29 20 -33 20 -3 -1 -15 -4 -27 -6z"/>
<path d="M14476 4573 c-27 -3 -40 -10 -43 -23 -3 -11 -20 -24 -39 -30 -21 -7
-40 -23 -49 -41 -9 -16 -20 -29 -25 -29 -17 0 -125 -117 -184 -201 -33 -46
-69 -95 -81 -109 -45 -52 -174 -295 -212 -400 -57 -156 -68 -205 -83 -370 -27
-285 -29 -319 -20 -381 12 -84 6 -115 -31 -156 -16 -19 -29 -40 -29 -47 0 -8
-14 -19 -31 -25 -21 -7 -29 -15 -26 -26 6 -15 -17 -45 -35 -45 -6 0 -8 10 -5
22 9 32 -32 65 -85 69 -65 4 -117 -10 -134 -37 -9 -12 -28 -24 -42 -26 -33 -4
-42 -34 -12 -43 35 -11 89 -49 95 -67 5 -14 10 -15 31 -6 13 6 24 20 24 30 0
15 6 19 27 16 22 -2 28 -8 28 -27 0 -25 24 -43 26 -19 1 7 2 22 3 32 0 11 16
28 34 39 31 18 36 18 75 4 23 -9 51 -17 62 -19 18 -3 28 -26 15 -38 -18 -17
-28 -48 -18 -58 8 -8 6 -16 -6 -28 -23 -23 -12 -69 25 -103 42 -38 47 -79 14
-115 -15 -16 -33 -47 -41 -70 -17 -47 -28 -56 -71 -56 -40 0 -84 19 -102 43
-19 26 -85 15 -119 -18 -14 -14 -22 -25 -18 -25 4 0 2 -9 -4 -20 -13 -25 -72
-41 -110 -30 -20 6 -29 5 -27 -2 1 -6 -14 -15 -33 -19 -26 -6 -39 -4 -50 8
-11 12 -12 17 -2 20 26 10 11 41 -32 63 -43 23 -44 23 -71 6 -15 -10 -46 -23
-69 -30 -29 -9 -40 -17 -38 -29 1 -9 -7 -21 -18 -27 -11 -6 -18 -15 -15 -21 4
-5 1 -9 -5 -9 -7 0 -10 6 -7 14 4 11 -2 14 -24 14 -16 -1 -29 -4 -29 -8 0 -16
-29 -18 -56 -3 -61 32 -121 41 -177 28 -64 -16 -87 -25 -87 -35 0 -4 -15 -17
-34 -28 -43 -25 -179 -40 -258 -29 -46 7 -63 6 -90 -8 -18 -10 -50 -26 -70
-36 -20 -10 -39 -23 -43 -28 -3 -6 -26 -13 -51 -17 -27 -4 -54 -15 -65 -28
-11 -11 -26 -21 -32 -21 -15 0 -19 -118 -5 -156 8 -23 15 -26 65 -28 31 -1 60
-4 64 -7 4 -2 11 2 16 10 7 13 95 31 202 42 47 5 81 19 81 34 0 6 21 10 46 10
27 0 43 4 39 10 -3 5 7 12 22 16 15 3 34 7 41 10 6 2 12 -1 12 -7 0 -6 8 -8
18 -5 9 3 43 8 75 12 48 5 57 4 57 -9 0 -9 4 -19 10 -22 12 -8 59 26 60 43 0
7 21 22 47 33 26 11 53 25 61 31 15 13 167 10 167 -2 0 -2 25 -4 55 -6 30 -1
57 -4 60 -5 17 -6 48 6 67 27 13 14 33 24 49 24 23 0 25 3 20 24 -6 23 -3 24
52 28 31 2 61 2 65 0 8 -4 152 -6 205 -3 15 1 22 7 22 21 0 16 7 20 38 21 20
1 41 1 46 0 4 -1 28 -2 53 -3 39 0 45 -4 59 -32 8 -17 21 -42 29 -56 10 -18
15 -57 15 -133 0 -99 2 -112 29 -166 21 -40 39 -62 58 -69 44 -18 114 -31 161
-32 39 0 49 5 88 45 24 25 44 54 44 65 0 10 8 25 18 32 10 7 21 21 25 31 4 9
15 20 24 23 10 3 25 9 33 13 9 5 29 1 50 -10 19 -11 43 -16 52 -13 20 6 24
-11 6 -23 -20 -12 -63 -152 -59 -192 3 -45 22 -65 80 -92 25 -12 53 -25 61
-29 9 -4 31 -11 50 -15 19 -4 44 -13 55 -20 11 -7 52 -22 90 -33 77 -21 109
-16 120 17 3 12 15 21 25 21 33 0 50 12 50 34 0 31 11 43 50 53 41 12 61 2
136 -66 9 -8 12 -20 8 -30 -4 -9 -14 -42 -22 -74 -13 -51 -13 -63 0 -105 9
-28 23 -51 36 -57 11 -5 23 -17 25 -26 3 -11 20 -19 53 -24 26 -4 57 -13 68
-21 11 -8 30 -14 43 -14 12 0 24 -4 27 -9 6 -10 71 -42 119 -60 15 -6 27 -16
27 -23 0 -7 6 -4 13 7 17 27 23 1891 7 2224 -10 226 -11 236 -35 267 -14 18
-25 37 -25 42 0 8 -26 78 -51 137 -4 11 -20 52 -35 90 -15 39 -37 82 -50 97
-12 16 -25 37 -29 48 -4 13 -15 20 -32 20 -46 0 -83 55 -102 151 -12 58 -40
99 -118 175 -24 23 -43 45 -43 50 0 5 -18 27 -40 48 -22 22 -40 45 -40 52 0 6
-19 28 -42 49 -24 20 -56 49 -73 65 -16 15 -40 31 -51 34 -12 4 -32 15 -44 26
-15 13 -38 20 -66 20 -23 0 -48 1 -56 3 -7 2 -30 2 -52 0z m109 -1698 c77 -13
172 -26 210 -30 105 -10 212 -43 236 -74 29 -36 22 -80 -18 -107 -41 -27 -145
-37 -396 -38 -138 -1 -187 -4 -187 -13 0 -7 12 -34 26 -60 18 -33 25 -63 25
-97 0 -27 7 -58 15 -70 8 -11 14 -30 14 -43 0 -12 4 -24 9 -27 5 -3 19 -32 31
-63 30 -74 48 -95 80 -91 14 1 30 -1 36 -5 15 -9 110 100 127 146 4 10 23 25
42 33 28 11 35 19 30 33 -3 10 1 31 10 47 8 16 15 36 15 45 0 8 5 20 12 27 14
14 118 17 118 3 0 -4 14 -25 30 -46 36 -45 38 -79 10 -161 -11 -32 -19 -63
-16 -70 2 -6 0 -17 -4 -25 -5 -8 -4 -19 2 -26 7 -9 7 -21 -1 -40 -6 -16 -9
-56 -6 -93 7 -92 7 -209 0 -220 -17 -28 -22 4 -23 145 0 157 -6 185 -38 185
-8 0 -14 7 -14 15 0 15 -10 19 -44 15 -29 -3 -96 -48 -96 -65 0 -8 -6 -15 -14
-15 -8 0 -30 -15 -49 -34 -30 -29 -36 -43 -42 -93 -4 -32 -9 -65 -11 -75 -3
-9 0 -19 6 -23 5 -3 10 -15 10 -27 0 -11 8 -32 18 -46 29 -44 55 -110 49 -126
-4 -9 2 -21 15 -30 14 -10 19 -22 15 -35 -3 -12 -1 -24 4 -27 13 -7 11 -41 -2
-50 -14 -8 -29 14 -22 32 6 16 -25 64 -42 64 -14 0 -34 41 -36 73 -1 17 -2 18
-6 5 -2 -10 -8 -18 -13 -18 -12 0 -30 34 -30 57 0 20 -64 58 -81 48 -17 -11
-78 27 -99 62 -14 25 -17 39 -11 52 6 10 11 52 12 93 3 69 1 78 -24 108 -15
17 -27 40 -27 50 0 9 -7 23 -16 31 -9 7 -23 30 -31 51 -8 21 -21 38 -28 38 -7
0 -15 9 -18 19 -3 12 -18 23 -38 29 -26 6 -35 15 -39 36 -3 15 -15 32 -30 39
-25 13 -42 56 -43 114 -1 33 17 76 41 102 15 15 10 36 -24 99 -29 54 -32 121
-6 151 48 57 113 60 377 16z m-98 -1042 c4 -11 -26 -27 -35 -19 -2 3 -2 12 2
21 6 18 27 16 33 -2z m-32 -53 c3 -5 1 -10 -4 -10 -6 0 -11 5 -11 10 0 6 2 10
4 10 3 0 8 -4 11 -10z m578 -20 c-7 -25 -23 -37 -23 -16 0 23 11 46 20 41 5
-3 6 -14 3 -25z m7 -211 c0 -17 -4 -28 -10 -24 -5 3 -10 17 -10 31 0 13 5 24
10 24 6 0 10 -14 10 -31z"/>
<path d="M3076 4215 c-3 -9 0 -15 9 -15 8 0 15 7 15 15 0 8 -4 15 -9 15 -5 0
-11 -7 -15 -15z"/>
<path d="M3070 4160 c0 -13 -4 -19 -11 -14 -18 11 -28 -17 -16 -44 9 -20 8
-26 -10 -40 -27 -22 -44 -57 -37 -75 3 -8 0 -18 -5 -22 -6 -3 -9 -10 -6 -15 7
-12 -22 -82 -38 -92 -7 -4 -23 -8 -36 -8 -13 0 -32 -11 -43 -25 -11 -14 -30
-25 -43 -25 -39 0 -47 -22 -21 -61 20 -31 53 -142 47 -163 -1 -4 6 -14 15 -20
19 -15 11 -56 -12 -56 -7 0 -27 -14 -44 -31 -32 -34 -32 -34 11 -82 9 -9 16
-34 17 -54 3 -81 -30 -141 -88 -158 -13 -4 -36 -16 -50 -27 -18 -13 -45 -19
-86 -20 -69 -2 -111 13 -138 49 -22 30 -35 113 -17 113 14 0 0 29 -26 56 -10
9 -25 39 -34 65 -14 41 -14 57 -3 110 14 70 11 80 -42 119 -18 14 -34 31 -34
38 0 23 -23 7 -33 -24 -6 -16 -16 -33 -23 -37 -8 -4 -14 -15 -14 -24 0 -10
-11 -28 -24 -42 -20 -22 -25 -40 -30 -106 -4 -44 -11 -95 -17 -113 -6 -18 -9
-50 -7 -70 6 -46 -6 -69 -65 -127 -26 -25 -47 -50 -47 -55 0 -5 9 -18 20 -28
11 -11 23 -28 25 -38 15 -65 31 -93 62 -109 18 -10 33 -21 33 -24 0 -3 72 -7
160 -9 153 -2 162 -1 193 20 18 13 34 25 37 28 3 3 25 15 48 28 75 38 92 33
197 -61 22 -20 33 -23 125 -33 99 -11 124 -12 267 -18 120 -6 136 -4 170 14
21 11 41 20 46 20 5 0 28 20 51 45 32 33 52 45 72 45 40 1 78 31 70 57 -10 30
-45 63 -68 63 -50 0 -197 92 -240 150 -27 37 -29 44 -22 96 6 54 8 57 56 86
l50 31 -91 88 c-85 81 -91 90 -91 127 0 80 44 142 101 142 60 0 89 12 89 36 0
23 -36 57 -52 48 -12 -8 -108 26 -108 38 0 16 -43 47 -66 48 -29 0 -55 31 -47
58 3 13 1 22 -6 22 -10 0 -15 -13 -13 -31 1 -4 -8 -5 -19 -2 -14 4 -18 10 -12
22 4 9 7 43 8 76 0 49 -3 60 -17 63 -13 2 -18 -3 -18 -18z"/>
<path d="M13042 2748 c-7 -7 -12 -8 -12 -4 0 5 -6 4 -12 -1 -7 -6 -38 -16 -68
-23 -30 -7 -59 -19 -65 -25 -13 -16 -73 -27 -80 -15 -3 6 -16 10 -29 10 -12 0
-27 5 -32 10 -12 12 -164 -3 -187 -17 -7 -4 -19 -6 -29 -5 -9 2 -19 -2 -23 -8
-3 -5 -16 -10 -29 -10 -12 0 -26 -4 -32 -9 -5 -6 -61 -12 -124 -15 -112 -5
-154 -11 -175 -26 -5 -4 -26 -11 -45 -15 -19 -4 -42 -14 -51 -22 -9 -8 -29
-13 -44 -11 -24 3 -31 -3 -50 -38 -14 -27 -19 -48 -14 -61 9 -24 33 -35 46
-22 15 15 103 10 153 -8 29 -11 50 -10 50 2 0 7 14 15 31 19 17 3 48 24 70 46
36 36 44 40 92 40 29 0 59 4 67 10 8 5 19 5 25 1 18 -14 107 -41 134 -41 24 1
64 21 123 63 14 10 52 22 84 28 33 6 66 11 74 13 8 2 32 -3 53 -10 32 -11 89
-20 156 -23 8 -1 11 -7 7 -17 -3 -8 -2 -12 4 -9 6 3 10 1 10 -4 0 -19 -70 -16
-82 2 -4 6 -8 9 -10 7 -2 -3 -16 -24 -32 -47 -32 -47 -84 -77 -138 -78 -21 -1
-40 -3 -43 -7 -6 -6 -51 9 -100 32 -27 13 -39 15 -81 11 -7 -1 -35 -17 -63
-36 -29 -21 -63 -35 -80 -35 -16 0 -31 -4 -33 -9 -4 -12 -144 -29 -162 -19 -7
4 -22 9 -32 11 -19 4 -40 11 -81 28 -15 5 -23 5 -24 -1 -6 -43 -26 -65 -85
-95 -32 -16 -65 -30 -73 -32 -43 -6 -62 -16 -77 -39 -13 -19 -14 -28 -5 -37 6
-6 11 -19 11 -29 0 -22 36 -29 175 -31 102 -2 112 0 133 21 12 12 28 22 35 22
6 0 25 14 41 30 22 22 39 30 65 30 20 0 51 4 70 10 28 8 41 5 82 -15 26 -14
60 -25 75 -25 25 0 170 82 186 105 4 5 13 11 20 11 7 1 19 2 26 3 6 0 12 9 13
19 0 10 3 12 6 4 2 -6 9 -10 14 -6 5 3 9 1 9 -3 0 -5 8 -9 18 -10 40 -4 104
-21 115 -32 16 -16 40 -14 87 6 30 13 39 22 34 35 -3 10 -1 18 5 18 5 0 24 13
42 30 29 26 31 32 21 55 -11 23 -10 25 6 17 9 -5 23 -7 30 -5 7 3 19 -3 26
-12 15 -21 138 -65 181 -65 18 0 46 5 63 11 33 11 70 57 54 68 -10 7 -9 36 3
64 11 26 -2 35 -60 42 -69 8 -114 -16 -131 -70 -6 -22 -12 -37 -13 -34 -1 3
-21 3 -45 -1 -30 -4 -44 -3 -43 4 1 6 -9 11 -23 12 -60 2 -85 14 -107 55 l-22
40 40 27 c26 18 38 33 35 45 -3 12 2 17 15 17 16 0 10 10 -27 45 -40 39 -52
45 -88 45 -23 0 -47 -5 -54 -12z m508 -198 c0 -5 -5 -10 -11 -10 -5 0 -7 5 -4
10 3 6 8 10 11 10 2 0 4 -4 4 -10z m-645 -180 c-3 -5 -10 -10 -16 -10 -5 0 -9
5 -9 10 0 6 7 10 16 10 8 0 12 -4 9 -10z"/>
<path d="M3013 2151 c-10 -14 -25 -40 -32 -57 -7 -17 -22 -36 -34 -41 -21 -10
-20 -11 14 -25 l35 -16 -3 -63 c-9 -158 -8 -169 9 -191 25 -33 108 -35 138 -3
17 18 21 32 17 53 -3 16 -1 34 4 39 13 13 0 63 -16 63 -11 0 -11 5 1 28 7 15
14 37 14 50 0 14 9 27 25 34 32 15 32 23 -6 58 -17 15 -28 33 -25 39 4 6 -5
13 -21 16 -15 4 -44 15 -64 25 l-37 18 -19 -27z"/>
<path d="M2584 2146 c-10 -14 -23 -22 -28 -19 -6 3 -5 0 2 -8 17 -19 15 -26
-10 -33 -33 -8 -50 -50 -30 -70 22 -21 44 -89 31 -96 -6 -4 -7 -41 -2 -101 l8
-94 37 -3 c20 -2 51 1 70 6 31 8 33 11 33 50 0 22 6 47 13 53 17 18 15 50 -5
64 -14 11 -15 17 -6 37 7 16 8 30 1 41 -6 12 -3 23 12 39 25 27 25 29 0 61
-11 14 -20 30 -20 36 0 7 -7 23 -16 36 -22 33 -65 33 -90 1z"/>
<path d="M3505 2160 c-3 -5 -3 -10 2 -11 4 0 -5 -7 -22 -14 -16 -8 -24 -14
-17 -15 19 0 14 -18 -7 -25 -26 -8 -35 -50 -17 -83 37 -66 38 -74 17 -96 -18
-19 -19 -27 -10 -59 5 -21 7 -46 4 -57 -11 -34 11 -57 62 -65 26 -4 51 -12 55
-18 9 -14 46 29 54 63 3 14 10 35 16 46 7 15 7 28 0 40 -6 11 -13 40 -17 66
-7 45 -5 50 26 79 l33 30 -28 22 c-15 12 -28 29 -29 37 -2 8 -11 27 -21 43
-15 22 -26 27 -57 27 -21 0 -41 -4 -44 -10z"/>
<path d="M3933 2145 c-13 -12 -23 -26 -23 -31 -1 -13 -32 -49 -54 -61 -16 -9
-15 -11 12 -22 26 -11 30 -19 35 -63 4 -29 2 -59 -4 -70 -12 -22 -4 -68 11
-68 5 0 4 -13 -2 -31 -9 -27 -8 -33 8 -43 75 -44 154 -29 154 30 0 14 7 33 16
41 11 11 14 26 10 47 -22 106 -9 156 41 156 14 0 23 6 23 16 0 12 -6 15 -24
10 -21 -5 -28 -1 -42 30 -9 20 -28 41 -41 47 -12 5 -23 14 -23 19 0 5 -4 6
-10 3 -5 -3 -10 -1 -10 4 0 19 -54 9 -77 -14z"/>
<path d="M1961 2117 c-6 -14 -19 -31 -31 -37 -24 -13 -26 -37 -4 -61 19 -21
22 -132 5 -153 -8 -10 -9 -16 -1 -21 5 -3 10 -19 10 -36 0 -43 31 -69 85 -69
57 0 62 11 60 125 -1 88 9 145 25 145 17 0 7 65 -12 78 -10 7 -18 20 -18 28 0
8 -8 14 -17 14 -10 0 -35 3 -55 6 -34 6 -39 4 -47 -19z"/>
<path d="M1380 2110 c0 -5 -9 -10 -19 -10 -11 0 -31 -14 -46 -31 l-26 -32 21
-14 c17 -12 20 -21 15 -44 -4 -18 -2 -36 5 -44 9 -11 6 -17 -14 -30 -30 -20
-33 -37 -10 -56 9 -7 24 -31 35 -53 15 -34 24 -41 46 -41 40 0 56 13 49 41 -9
34 13 65 36 53 25 -14 24 12 -2 36 -21 19 -21 45 1 113 15 46 5 77 -31 92 -16
7 -30 16 -30 21 0 5 -7 9 -15 9 -8 0 -15 -4 -15 -10z"/>
<path d="M537 2043 c9 -7 25 -13 36 -13 10 0 17 5 15 13 -3 6 -19 12 -37 12
-27 0 -29 -2 -14 -12z"/>
<path d="M500 1948 c-11 -23 -20 -43 -20 -45 0 -6 74 9 93 19 23 12 22 23 -5
48 -32 29 -45 25 -68 -22z"/>
<path d="M589 1893 c-1 -4 -1 -11 0 -15 1 -7 -19 -11 -54 -11 -5 0 -27 2 -47
6 -40 6 -55 -11 -19 -20 16 -4 20 -13 18 -44 -1 -43 -1 -44 29 -53 28 -9 57
19 50 48 -6 25 12 52 39 57 25 5 26 33 3 37 -10 2 -19 0 -19 -5z"/>
<path d="M4476 1329 c-23 -18 -26 -27 -26 -85 0 -59 2 -64 24 -70 13 -3 34 -1
45 6 15 7 27 8 40 0 28 -15 57 -12 72 6 23 28 32 -19 12 -68 -15 -38 -15 -42
0 -53 26 -19 172 -18 191 1 9 8 16 20 16 25 0 16 23 10 46 -12 45 -42 159 -31
159 16 0 17 -7 20 -44 20 -27 0 -46 5 -48 13 -3 8 9 12 41 12 25 0 49 1 54 3
4 1 8 -8 10 -20 9 -63 120 -97 169 -51 l23 22 16 -22 c13 -19 24 -22 94 -22
44 0 90 5 104 11 17 8 30 9 38 2 7 -6 82 -11 170 -11 l157 -1 19 26 19 26 21
-23 c15 -16 36 -24 69 -27 42 -4 51 -2 72 20 30 33 19 49 -32 45 -26 -2 -42 1
-44 10 -3 8 8 12 39 12 24 0 49 4 56 8 20 13 3 70 -30 97 -38 32 -78 32 -116
0 -36 -30 -48 -31 -55 -6 -6 24 -104 36 -128 15 -18 -17 -49 -19 -49 -3 0 6
-26 10 -67 9 -38 0 -79 0 -92 1 -13 0 -34 -5 -46 -11 -19 -10 -27 -10 -46 4
-30 20 -108 21 -137 1 -17 -12 -26 -13 -42 -5 -12 6 -46 12 -77 13 -51 2 -58
0 -80 -29 l-25 -30 -33 33 c-47 47 -103 43 -146 -11 l-17 -21 -31 30 c-19 17
-43 29 -59 30 -22 0 -28 5 -30 30 -6 49 -16 54 -95 48 -89 -7 -107 -16 -107
-51 0 -15 -4 -34 -10 -42 -15 -24 -25 16 -11 46 14 32 14 32 -8 43 -14 8 -25
6 -45 -10z m174 -76 c-1 -27 -1 -27 -15 -9 -19 25 -19 36 0 36 10 0 15 -10 15
-27z m708 -58 c-2 -5 -16 -10 -32 -10 -17 -1 -35 -9 -46 -23 -12 -14 -29 -22
-49 -22 -16 0 -33 -4 -36 -10 -14 -22 -35 -10 -35 20 0 35 27 53 42 27 12 -23
41 -21 56 4 8 12 19 18 30 15 9 -3 24 -1 32 4 18 12 42 9 38 -5z m516 -19 c-5
-13 -9 -14 -20 -5 -11 9 -12 15 -3 26 15 17 32 2 23 -21z m-282 -28 c-13 -13
-24 5 -16 27 7 16 8 16 17 0 6 -11 6 -20 -1 -27z m-812 7 c0 -16 -6 -25 -15
-25 -9 0 -15 9 -15 25 0 16 6 25 15 25 9 0 15 -9 15 -25z m703 6 c5 -22 -1
-33 -14 -25 -12 7 -12 44 0 44 5 0 11 -9 14 -19z m245 -31 c-5 -27 -33 -17
-36 13 -3 26 -2 27 18 15 11 -7 19 -20 18 -28z m-361 -16 c-9 -9 -28 6 -21 18
4 6 10 6 17 -1 6 -6 8 -13 4 -17z"/>
<path d="M7857 1332 c-22 -24 -21 -39 0 -51 16 -8 15 -11 -5 -28 -20 -16 -22
-21 -11 -51 8 -25 8 -44 0 -78 -18 -70 -10 -74 129 -74 101 0 119 3 133 18 19
21 22 64 7 92 -7 13 -6 27 2 45 16 35 -2 51 -69 59 -40 5 -55 3 -67 -10 -9 -9
-23 -13 -31 -10 -18 6 -20 37 -3 54 9 9 7 16 -7 32 -23 25 -57 26 -78 2z m118
-211 c-10 -16 -25 -3 -25 22 0 20 1 20 16 5 9 -9 13 -21 9 -27z"/>
<path d="M8830 1335 c-10 -12 -10 -24 -1 -54 14 -48 14 -154 0 -168 -6 -6 -9
-21 -7 -34 3 -22 8 -24 78 -29 72 -5 130 4 130 19 0 4 6 16 14 26 13 18 14 17
30 -13 l16 -32 345 1 c281 1 346 3 356 15 9 12 14 11 32 -1 28 -20 107 -19
135 1 20 14 23 14 28 0 7 -19 113 -23 146 -5 14 8 23 8 31 0 17 -17 119 -14
145 5 27 18 30 77 6 101 -24 25 -1 38 31 17 25 -16 27 -16 53 3 15 12 26 28
25 39 -3 23 13 51 24 41 4 -4 2 -21 -4 -37 -16 -42 2 -65 39 -51 15 5 32 19
37 30 15 28 14 118 -1 128 -19 12 -161 12 -175 1 -18 -15 -16 -58 3 -80 16
-16 15 -18 0 -24 -11 -4 -22 0 -30 12 -18 24 -104 28 -128 7 -12 -11 -22 -13
-30 -6 -7 6 -38 13 -68 16 -56 5 -85 -3 -106 -31 -9 -13 -13 -12 -25 6 -30 42
-138 33 -156 -14 -8 -21 -22 -17 -33 11 -5 14 -13 26 -17 26 -42 6 -172 4
-186 -3 -28 -14 -40 1 -22 28 23 35 5 64 -39 64 -25 0 -35 -6 -44 -25 -7 -15
-8 -27 -2 -30 6 -4 10 -13 10 -22 0 -14 -10 -15 -74 -10 -64 6 -78 4 -98 -12
-21 -18 -24 -18 -41 -3 -23 21 -149 24 -194 4 -28 -12 -35 -12 -54 2 -13 9
-32 13 -46 10 -21 -6 -23 -3 -23 30 0 25 -6 38 -19 46 -29 15 -77 12 -91 -5z
m627 -150 c3 -9 3 -19 -1 -22 -8 -9 -37 18 -30 28 8 14 24 11 31 -6z m703 -9
c0 -8 7 -19 15 -26 8 -7 15 -16 15 -21 0 -5 -7 -9 -15 -9 -8 0 -15 9 -15 20 0
10 -7 23 -16 28 -9 5 -14 15 -10 21 9 14 26 5 26 -13z m-988 -28 c-13 -13 -26
8 -17 30 6 16 7 16 17 -1 7 -13 7 -22 0 -29z m-205 16 c8 -21 -13 -42 -28 -27
-13 13 -5 43 11 43 6 0 13 -7 17 -16z m333 -32 c0 -27 -25 -5 -28 24 -3 28 -3
28 12 9 8 -11 16 -26 16 -33z m273 34 c6 -15 -1 -26 -15 -26 -4 0 -8 9 -8 20
0 23 15 27 23 6z m114 -11 c8 -22 -6 -33 -17 -15 -13 20 -12 30 0 30 6 0 13
-7 17 -15z m318 -25 c0 -8 -10 -16 -22 -18 -22 -3 -32 16 -16 32 12 11 38 2
38 -14z m-87 -2 c-7 -19 -38 -22 -38 -4 0 10 9 16 21 16 12 0 19 -5 17 -12z"/>
<path d="M6992 1311 c-22 -19 -55 -84 -47 -93 3 -2 9 -35 14 -72 5 -37 15 -73
21 -81 8 -10 60 -13 228 -14 202 0 218 1 238 20 21 19 21 19 39 -1 24 -27 80
-27 97 -1 12 19 12 19 39 0 38 -27 101 -25 135 4 38 33 24 51 -32 43 -34 -4
-44 -2 -44 9 0 10 14 15 48 17 45 3 47 5 50 34 2 24 -4 39 -28 63 -38 37 -87
42 -130 11 -24 -17 -29 -18 -40 -5 -7 8 -16 30 -19 48 -10 45 -35 46 -77 1
-35 -36 -36 -37 -94 -31 -53 6 -60 4 -85 -20 l-27 -27 -17 23 c-22 29 -108 41
-147 20 -32 -17 -57 -3 -64 37 -6 35 -27 40 -58 15z m186 -113 c-2 -6 -16 -12
-31 -12 -14 -1 -37 -12 -50 -24 -26 -25 -47 -29 -47 -9 0 24 33 45 75 50 22 2
44 4 48 5 5 1 7 -3 5 -10z m292 -24 c0 -17 -22 -14 -28 4 -2 7 3 12 12 12 9 0
16 -7 16 -16z m110 -20 c0 -8 -4 -14 -10 -14 -5 0 -10 9 -10 21 0 11 5 17 10
14 6 -3 10 -13 10 -21z m-269 -27 c-13 -13 -31 1 -31 25 0 21 1 21 20 3 13
-12 17 -22 11 -28z m-121 -3 c0 -17 -22 -14 -28 4 -2 7 3 12 12 12 9 0 16 -7
16 -16z"/>
<path d="M6361 1254 c-17 -13 -28 -14 -44 -6 -12 6 -60 10 -106 9 -104 -2
-119 -16 -83 -77 12 -21 22 -46 22 -55 0 -9 7 -27 16 -41 15 -23 15 -26 0 -43
-34 -38 -7 -87 42 -75 21 6 25 13 63 122 12 34 25 62 30 62 4 0 10 -13 14 -30
9 -43 49 -70 102 -70 37 0 49 5 73 31 27 31 50 32 50 4 0 -26 34 -32 180 -31
l145 1 -2 52 c-2 49 0 53 22 59 20 5 25 12 25 38 0 17 -4 36 -8 42 -4 6 -74
11 -194 12 -147 0 -189 -2 -198 -13 -10 -12 -17 -11 -43 6 -39 23 -75 24 -106
3z m282 -84 c6 -22 -10 -37 -24 -23 -10 10 0 55 11 48 4 -3 10 -14 13 -25z
m-403 5 c0 -8 -4 -15 -10 -15 -5 0 -10 7 -10 15 0 8 5 15 10 15 6 0 10 -7 10
-15z m188 -17 c-4 -39 -25 -48 -34 -14 -7 29 1 46 22 46 11 0 14 -9 12 -32z
m327 2 c0 -13 -6 -25 -12 -27 -9 -3 -13 6 -13 27 0 21 4 30 13 28 6 -3 12 -15
12 -28z"/>
<path d="M8211 1236 c-31 -32 -33 -38 -29 -86 7 -69 30 -92 102 -98 52 -4 57
-3 85 29 l30 33 10 -27 c13 -34 25 -36 196 -34 l140 2 -2 30 c0 17 -3 39 -5
49 -2 14 4 21 22 26 22 5 25 11 25 55 l0 49 -70 1 c-38 0 -76 -4 -82 -8 -7 -5
-21 -6 -30 -2 -28 11 -203 5 -223 -7 -14 -9 -22 -8 -35 5 -10 11 -32 17 -59
17 -35 0 -48 -6 -75 -34z m93 -68 c3 -14 0 -29 -9 -37 -12 -12 -15 -11 -20 12
-7 26 0 47 14 47 5 0 11 -10 15 -22z m212 -25 c-12 -12 -29 15 -21 34 7 17 8
16 18 -5 5 -12 7 -25 3 -29z m114 11 c0 -14 -4 -22 -10 -19 -5 3 -10 17 -10
31 0 14 4 22 10 19 6 -3 10 -17 10 -31z"/>
</g>
</svg>
